<svg width="27" height="27" viewBox="0 0 27 27" fill="none" xmlns="http://www.w3.org/2000/svg">
<path fill-rule="evenodd" clip-rule="evenodd" d="M10.3574 7.38225C11.7951 6.11437 13.6829 5.34375 15.7495 5.34375C20.2506 5.34375 23.9057 8.99888 23.9057 13.5C23.9057 18.0011 20.2506 21.6562 15.7495 21.6562C13.6829 21.6562 11.7951 20.8856 10.3574 19.6178C10.0086 19.3095 9.47424 19.3421 9.16599 19.692C8.85774 20.0408 8.89149 20.574 9.24024 20.8822C10.9761 22.4145 13.2554 23.3438 15.7495 23.3438C21.1821 23.3438 25.5932 18.9326 25.5932 13.5C25.5932 8.06738 21.1821 3.65625 15.7495 3.65625C13.2554 3.65625 10.9761 4.5855 9.24024 6.11775C8.89149 6.426 8.85774 6.95925 9.16599 7.308C9.47424 7.65787 10.0086 7.6905 10.3574 7.38225Z" fill="#009C7F"/>
<path fill-rule="evenodd" clip-rule="evenodd" d="M14.457 8.55V13.05C14.457 13.2739 14.5459 13.4888 14.7045 13.6463L18.3045 17.2463C18.633 17.5759 19.1685 17.5759 19.497 17.2463C19.8267 16.9178 19.8267 16.3823 19.497 16.0538L16.1445 12.7001V8.55C16.1445 8.08425 15.7665 7.70625 15.3008 7.70625C14.835 7.70625 14.457 8.08425 14.457 8.55Z" fill="#009C7F"/>
<path fill-rule="evenodd" clip-rule="evenodd" d="M2.25 10.4062H9C9.46575 10.4062 9.84375 10.0282 9.84375 9.5625C9.84375 9.09675 9.46575 8.71875 9 8.71875H2.25C1.78425 8.71875 1.40625 9.09675 1.40625 9.5625C1.40625 10.0282 1.78425 10.4062 2.25 10.4062Z" fill="#009C7F"/>
<path fill-rule="evenodd" clip-rule="evenodd" d="M3.375 14.3438H10.125C10.5907 14.3438 10.9688 13.9657 10.9688 13.5C10.9688 13.0342 10.5907 12.6562 10.125 12.6562H3.375C2.90925 12.6562 2.53125 13.0342 2.53125 13.5C2.53125 13.9657 2.90925 14.3438 3.375 14.3438Z" fill="#009C7F"/>
<path fill-rule="evenodd" clip-rule="evenodd" d="M4.5 18.2812H11.25C11.7157 18.2812 12.0938 17.9032 12.0938 17.4375C12.0938 16.9717 11.7157 16.5938 11.25 16.5938H4.5C4.03425 16.5938 3.65625 16.9717 3.65625 17.4375C3.65625 17.9032 4.03425 18.2812 4.5 18.2812Z" fill="#009C7F"/>
</svg>
