<svg width="27" height="27" viewBox="0 0 27 27" fill="none" xmlns="http://www.w3.org/2000/svg">
<path fill-rule="evenodd" clip-rule="evenodd" d="M8.97621 8.2249L10.9821 15.7118C11.1025 16.1618 10.8358 16.6241 10.3858 16.7445L6.14233 17.8819C5.34921 18.0945 4.50433 17.9831 3.79446 17.5725C3.08346 17.163 2.56483 16.4869 2.35333 15.6938L1.51183 12.5539C1.29921 11.7619 1.41058 10.917 1.82008 10.2071C2.23071 9.49615 2.90683 8.97752 3.69883 8.7649L7.94233 7.62865C8.39233 7.50715 8.85583 7.7749 8.97621 8.2249ZM7.56433 9.47702L4.13533 10.395C3.77533 10.4918 3.46821 10.728 3.28146 11.0509C3.09583 11.3738 3.04521 11.7574 3.14196 12.1174L3.98233 15.2573C4.07908 15.6173 4.31533 15.9244 4.63821 16.1111C4.96108 16.2979 5.34471 16.3485 5.70471 16.2518L9.13371 15.3326L7.56433 9.47702Z" fill="#009C7F"/>
<path fill-rule="evenodd" clip-rule="evenodd" d="M9.93552 16.1156L10.6443 22.0073C10.7624 22.9793 10.1459 23.8905 9.19977 24.1436L8.72165 24.2719C8.1704 24.4204 7.58202 24.3214 7.10952 24.0019C6.6359 23.6813 6.3254 23.1728 6.25677 22.6058L5.58627 17.0336C5.53565 16.6163 5.80002 16.2259 6.20502 16.1179L8.87915 15.4013C9.1154 15.3383 9.3674 15.3799 9.5699 15.5171C9.7724 15.6544 9.90627 15.8726 9.93552 16.1156ZM8.37627 17.2834L7.34915 17.5579L7.93302 22.4044C7.94202 22.4854 7.98702 22.5574 8.05452 22.6035C8.12202 22.6496 8.2064 22.6631 8.28515 22.6418L8.76327 22.5135C8.89827 22.4775 8.98602 22.3481 8.96915 22.2086L8.37627 17.2834Z" fill="#009C7F"/>
<path fill-rule="evenodd" clip-rule="evenodd" d="M16.9583 3.79351L20.1105 15.5576C20.1769 15.8085 20.1252 16.0763 19.9688 16.2844C19.8124 16.4914 19.5694 16.6151 19.3095 16.6196L10.1802 16.7738C9.79316 16.7794 9.45116 16.5218 9.35104 16.1483L7.34516 8.66138C7.24504 8.28788 7.41266 7.89301 7.75016 7.70513L15.7332 3.27376C15.9604 3.14776 16.2327 3.13313 16.4723 3.23551C16.7119 3.33676 16.8908 3.54263 16.9583 3.79351ZM15.6072 5.27401L9.14516 8.86163L10.8102 15.075L18.2003 14.9501L15.6072 5.27401Z" fill="#009C7F"/>
<path fill-rule="evenodd" clip-rule="evenodd" d="M15.193 3.72263C15.0726 3.27263 15.3392 2.81025 15.7892 2.68988C16.2392 2.5695 16.7027 2.83613 16.8231 3.28613L20.2476 16.065C20.368 16.515 20.1002 16.9774 19.6502 17.0989C19.2002 17.2193 18.7378 16.9515 18.6175 16.5015L15.193 3.72263Z" fill="#009C7F"/>
<path fill-rule="evenodd" clip-rule="evenodd" d="M22.823 9.39602C22.373 9.51752 21.9095 9.25089 21.7891 8.80089C21.6676 8.35089 21.9343 7.88739 22.3843 7.76702L24.5218 7.19102C24.9718 7.06952 25.4353 7.33614 25.5568 7.78614C25.6771 8.23614 25.4105 8.69964 24.9605 8.82002L22.823 9.39602Z" fill="#009C7F"/>
<path fill-rule="evenodd" clip-rule="evenodd" d="M21.4701 13.6586C21.0663 13.4258 20.9268 12.9094 21.1597 12.5066C21.3914 12.1028 21.9078 11.9633 22.3117 12.1961L24.2309 13.3009C24.6348 13.5326 24.7732 14.049 24.5414 14.4529C24.3085 14.8568 23.7922 14.9952 23.3883 14.7634L21.4701 13.6586Z" fill="#009C7F"/>
<path fill-rule="evenodd" clip-rule="evenodd" d="M20.8951 5.80838C20.6633 6.21226 20.147 6.35063 19.7431 6.11888C19.3392 5.88601 19.2008 5.36963 19.4326 4.96576L20.5373 3.04763C20.7702 2.64376 21.2866 2.50426 21.6905 2.73713C22.0932 2.96888 22.2327 3.48526 21.9998 3.88913L20.8951 5.80838Z" fill="#009C7F"/>
</svg>
