<svg width="27" height="27" viewBox="0 0 27 27" fill="none" xmlns="http://www.w3.org/2000/svg">
<path fill-rule="evenodd" clip-rule="evenodd" d="M6.85386 19.7842L9.46836 4.95449C9.61461 4.12649 10.086 3.39074 10.7812 2.90924C11.4731 2.42999 12.3281 2.24324 13.1606 2.38949L23.037 4.13099C23.8447 4.27387 24.5625 4.73062 25.0339 5.40337C25.5041 6.07499 25.6886 6.90637 25.5457 7.71524L23.019 22.0455C22.8727 22.8735 22.4014 23.6092 21.7061 24.0907C21.0154 24.57 20.1592 24.7567 19.3267 24.6105L8.96886 22.7835C7.55023 22.5337 6.60636 21.1894 6.85386 19.7842ZM8.51548 20.0779C8.42886 20.5695 8.76636 21.0341 9.26248 21.1219L19.6192 22.9489C20.013 23.0175 20.418 22.9309 20.7454 22.7036C21.0694 22.4797 21.2899 22.1377 21.3574 21.7519L23.8841 7.42162C23.9494 7.05487 23.865 6.67687 23.6512 6.37087C23.4375 6.06599 23.1112 5.85787 22.7434 5.79262L12.8681 4.05112C12.4744 3.98249 12.0694 4.06912 11.742 4.29637C11.4191 4.52024 11.1986 4.86224 11.13 5.24812L8.51548 20.0779Z" fill="#009C7F"/>
<path fill-rule="evenodd" clip-rule="evenodd" d="M12.7912 21.9577C13.2491 21.8779 13.6878 22.1839 13.7688 22.6429C13.8487 23.1007 13.5427 23.5395 13.0837 23.6205L7.67246 24.5745C6.83996 24.7207 5.98383 24.534 5.29308 24.0547C4.59783 23.5732 4.12646 22.8375 3.98021 22.0095L1.45346 7.67924C1.31058 6.87037 1.49508 6.03899 1.96533 5.36737C2.43671 4.69462 3.15446 4.23787 3.96221 4.09499L10.6481 2.91599C11.1071 2.83499 11.5447 3.14212 11.6257 3.59999C11.7067 4.05899 11.3996 4.49662 10.9406 4.57762L4.25583 5.75662C3.88796 5.82187 3.56171 6.02999 3.34796 6.33487C3.13421 6.64087 3.04983 7.01887 3.11508 7.38562L5.64183 21.7159C5.70933 22.1017 5.92983 22.4437 6.25383 22.6676C6.58121 22.8937 6.98621 22.9815 7.37996 22.9129L12.7912 21.9577Z" fill="#009C7F"/>
<path fill-rule="evenodd" clip-rule="evenodd" d="M13.0025 14.6329C12.5435 14.5519 12.2375 14.1142 12.3174 13.6552C12.3984 13.1974 12.8371 12.8902 13.295 12.9712L19.3891 14.0456C19.847 14.1266 20.1541 14.5642 20.0731 15.0232C19.9921 15.4822 19.5545 15.7882 19.0955 15.7072L13.0025 14.6329Z" fill="#009C7F"/>
<path fill-rule="evenodd" clip-rule="evenodd" d="M13.988 9.71099C13.529 9.62999 13.223 9.19236 13.304 8.73336C13.385 8.27436 13.8226 7.96836 14.2805 8.04824L20.3746 9.12374C20.8336 9.20361 21.1396 9.64236 21.0586 10.1002C20.9776 10.5592 20.54 10.8664 20.081 10.7854L13.988 9.71099Z" fill="#009C7F"/>
<path fill-rule="evenodd" clip-rule="evenodd" d="M12.3181 17.9482C11.8591 17.8672 11.5531 17.4296 11.6341 16.9706C11.7151 16.5127 12.1527 16.2056 12.6106 16.2866L18.7047 17.361C19.1637 17.442 19.4697 17.8796 19.3887 18.3386C19.3077 18.7965 18.8701 19.1036 18.4111 19.0226L12.3181 17.9482Z" fill="#009C7F"/>
</svg>
