<svg viewBox="0 0 129 163" xmlns="http://www.w3.org/2000/svg" fill-rule="evenodd" clip-rule="evenodd" stroke-linejoin="round" stroke-miterlimit="2"><path d="M105.593 138.663l-40.756 17.519-28.969-11.551v-32.273l4.423 10.287 24.23 9.662 23.965-10.301.071-.18 30.878-17.879-13.842 34.716zM6.642 100.227l29.553-17.114-6.206 15.568.231.54v43.158l-6.586-2.626-16.992-39.526zm15.406-41.192l32.999 8.797-15.397 6.619-.07.177-30.878 17.88 13.346-33.473zM63.292 8.717l40.23 46.513-9.059 33.977-6.619-15.397-.054-.021L59.318 13.47l3.974-4.753zm34.855 89.057l-.077-.176 9.193-34.476 14.232 33.106-29.555 17.114 6.207-15.568zM63.698 70.261l19.882 7.927 8.454 19.668-7.927 19.884-19.668 8.455-19.884-7.928L36.101 98.6l7.928-19.885 19.669-8.454zm-.082-6.113l-.177.077-38.077-10.152 29.965-35.831 24.771 52.479-16.482-6.573zm45.442-11.152L63.22 0 17.899 54.195 0 99.079l19.368 45.054 45.551 18.161 45.054-19.366 18.162-45.552-19.077-44.38z" fill="#fff" fill-rule="nonzero"/></svg>